<?xml version="1.0" encoding="utf-8"?>
<!-- Generator: Adobe Illustrator 24.0.0, SVG Export Plug-In . SVG Version: 6.00 Build 0)  -->
<svg version="1.1" id="Ebene_1" xmlns="http://www.w3.org/2000/svg" xmlns:xlink="http://www.w3.org/1999/xlink" x="0px" y="0px"
	 viewBox="0 0 1000 1000" style="enable-background:new 0 0 1000 1000;" xml:space="preserve">
<style type="text/css">
	.st0{fill:url(#SVGID_1_);}
	.st1{fill:url(#SVGID_2_);stroke:#FFFFFF;stroke-width:15;stroke-miterlimit:10;}
	.st2{fill:url(#SVGID_3_);stroke:#FFFFFF;stroke-width:15;stroke-miterlimit:10;}
	.st3{fill:url(#SVGID_4_);stroke:#FFFFFF;stroke-width:11;stroke-miterlimit:10;}
</style>
<linearGradient id="SVGID_1_" gradientUnits="userSpaceOnUse" x1="481.503" y1="107.9173" x2="490.8317" y2="907.5176">
	<stop  offset="0" style="stop-color:#505469"/>
	<stop  offset="0.1872" style="stop-color:#555568"/>
	<stop  offset="0.2039" style="stop-color:#535568"/>
	<stop  offset="1" style="stop-color:#975E49"/>
</linearGradient>
<path class="st0" d="M668.8,196.4l-0.1,0.1c-23.8-14.1-49.3-23.7-76.2-31.3c-8.2-2.3-14.8-8.5-17.8-16.5l-23.6-64.9
	c-3.8-10.5-13.8-17.5-25-17.5h-66.8c-11.2,0-21.1,7-25,17.5l-23.6,65c-2.9,8-9.4,14.1-17.6,16.4c-27,7.9-52.6,18.4-76.4,32.5
	l-0.1-0.7L240,160.2c-10.2-4.9-22.3-2.8-30.2,5.2l-47,46.9c-8,7.9-10.1,20.1-5.2,30.2L194,319l0.1,0.1c-14.2,23.9-28.2,49.6-37,76.8
	c-2.6,8-8.7,14.3-16.7,17L70.2,437c-10.7,3.7-17.9,13.8-17.9,25.1v66.1c0,11.3,7.2,21.4,17.9,25.1l70.4,24.1
	c7.8,2.7,13.9,8.9,16.4,16.8c8.5,27.2,21.2,53,35.4,77l0.7,0.1L157,747.9c-4.8,10.1-2.7,22.2,5.3,30.1l47.3,47.2
	c7.9,7.9,20,10,30.2,5.2l76.8-36.5l0.2-0.1c24,14.2,49.8,27.5,77,36.2c7.9,2.5,14.2,8.7,16.9,16.6l24,69.4
	c3.7,10.7,13.8,17.9,25.1,17.9h66.2c11.3,0,21.4-7.2,25.1-17.9l23.9-69.1c2.8-8.1,9.2-14.3,17.4-16.9c27-8.4,52.7-20.7,76.5-34.8
	l0.1-0.5l76.7,36.2c10.1,4.8,22.2,2.7,30.1-5.3l47.1-47.2c7.9-7.9,10-20,5.2-30.2l-36.5-76.8l-0.1-0.2c14-23.7,23-49.3,30.4-76.2
	c2.3-8.3,8.4-14.9,16.4-17.9l64.1-23.5c10.5-3.8,17.4-13.8,17.4-24.9v-67c0-11.1-6.9-21.1-17.4-24.9l-64.2-23.6
	c-8-2.9-14-9.5-16.4-17.6c-7.8-27-18-52.6-32-76.4l0.9-0.1 M558.6,707.1C385.7,757,230.9,602.2,280.8,429.3
	c20.3-70.5,75.7-125.9,146.2-146.2c172.9-49.9,327.7,105,277.8,277.8C686.8,623.2,620.7,689.2,558.6,707.1z"/>
<image style="display:none;overflow:visible;" width="128" height="128" xlink:href="C:\Users\Florian\Downloads\wrench.png"  transform="matrix(3.8594 0 0 3.8594 -17.7203 30.0471)">
</image>
<image style="display:none;overflow:visible;" width="1027" height="1027" xlink:href="../../Villusion-Projekte/villusion films logo.png"  transform="matrix(0.4223 0 0 0.4223 275.9089 278.266)">
</image>
<g>
	<linearGradient id="SVGID_2_" gradientUnits="userSpaceOnUse" x1="102.7998" y1="105.1971" x2="881.7997" y2="881.1971">
		<stop  offset="0" style="stop-color:#975E49"/>
		<stop  offset="0.8073" style="stop-color:#505469"/>
	</linearGradient>
	<path class="st1" d="M858.5,931.5c-8.7,1-17.4-1.8-25.8-5c-63.3-24.1-121.6-56.4-170.5-104c-28.7-27.9-50.9-60.1-64.8-97.9
		c-3.9-10.5-9.1-20.6-14.1-30.7c-7.1-14.3-18.9-22.8-34.3-26.4c-12.1-2.9-24.2-5.6-36.2-8.6c-4.3-1.1-8.6-2.6-12.7-4.5
		c-15-7-18.2-15.9-10.7-30.7c7.5-14.7,18.6-26.9,29.8-38.8c28.8-30.6,57.4-61.5,90.9-87.1c6.7-5.1,13.8-9.8,22.2-11.9
		c11.7-2.8,19.9,2.3,22.4,14.2c1.9,9.2,2.6,18.5,2.2,27.8c-1.2,33.4,14.3,55.4,44.7,68.5c17.9,7.7,36.4,13.8,53.7,22.7
		c50.8,26,88.1,66.1,117.6,113.9c21.2,34.4,39.5,70.2,50.1,109.5c11.2,41.5-11.7,70.1-48.2,87.2
		C869.8,932.2,864.3,931.6,858.5,931.5z"/>
	<linearGradient id="SVGID_3_" gradientUnits="userSpaceOnUse" x1="102.662" y1="105.3354" x2="881.662" y2="881.3354">
		<stop  offset="0" style="stop-color:#975E49"/>
		<stop  offset="0.8073" style="stop-color:#505469"/>
	</linearGradient>
	<path class="st2" d="M108.7,68.3c1.1,0.4,2.2,0.7,3.2,1.2c28.6,14.1,57.7,27.4,80.1,51.1c2.3,2.4,4.8,4.9,6.4,7.8
		c19.6,36.2,49.4,64.3,76.7,94.2c62.6,68.6,128.9,133.6,194.2,199.6c20.6,20.9,41.1,41.9,61.9,62.6c4,4,4,6.2-0.1,10
		c-13.5,12.4-26.8,25-39.8,37.9c-3.7,3.7-5.6,3.6-9.3,0c-38.5-38.9-77.1-77.7-115.8-116.5c-64.8-64.9-128.9-130.5-198.9-189.9
		c-10.5-8.9-21.4-17.2-34.4-22.7c-14.8-6.3-24.6-18.6-33.4-31.6c-12.1-18-21.6-37.6-32.1-56.6c-1.9-3.4-2.7-6.9,0.3-10.1
		c11.1-11.6,21.4-24,34.3-33.9C103.8,69.8,105.9,68.3,108.7,68.3z"/>
</g>
<linearGradient id="SVGID_4_" gradientUnits="userSpaceOnUse" x1="879.936" y1="136.6857" x2="141.936" y2="859.6857">
	<stop  offset="3.234283e-02" style="stop-color:#975E49"/>
	<stop  offset="0.3842" style="stop-color:#775A5B"/>
	<stop  offset="0.702" style="stop-color:#505469"/>
</linearGradient>
<path class="st3" d="M562.6,326.6c0,0-399.8,406.8-454.1,462.7s40.1,173.9,109.4,126.7c69.3-47.2,484.8-462.7,484.8-462.7
	s89.1,42.5,173.9-40.1s79.5-206.2,56.7-227.4L805.8,317.2L701.1,213.3L833.3,86.6c0,0-135.4-52.4-230.6,48.7
	C512.2,231.4,562.6,326.6,562.6,326.6z"/>
</svg>
