<svg xmlns="http://www.w3.org/2000/svg" xmlns:xlink="http://www.w3.org/1999/xlink" viewBox="0 0 1924 1939"><defs><style>.cls-1{isolation:isolate;}.cls-2{fill:url(#Unbenannter_Verlauf_40);}.cls-3{fill:#f2ca7d;}.cls-4{fill:#fdb566;}.cls-5{fill:#ffa760;}.cls-6{fill:#256674;}.cls-7{fill:url(#Neues_Verlaufsfeld_2);}.cls-8{fill:url(#Neues_Verlaufsfeld_2-2);}.cls-9{fill:url(#Neues_Verlaufsfeld_2-3);}.cls-10{fill:url(#Neues_Verlaufsfeld_2-4);}.cls-11{fill:url(#Unbenannter_Verlauf_27);}.cls-12{fill:url(#Neues_Verlaufsfeld_2-5);}.cls-13{fill:url(#Neues_Verlaufsfeld_2-6);}.cls-14{mix-blend-mode:soft-light;}.cls-15,.cls-20,.cls-24,.cls-29,.cls-41{mix-blend-mode:multiply;font-size:120px;font-family:Ikaros-Light, Ikaros Sans;font-weight:300;}.cls-15{letter-spacing:0.07em;}.cls-16{letter-spacing:0.11em;}.cls-17{letter-spacing:0em;}.cls-18{letter-spacing:0.05em;}.cls-19{letter-spacing:0.1em;}.cls-20{letter-spacing:0.1em;}.cls-21{letter-spacing:0.06em;}.cls-22{letter-spacing:0.07em;}.cls-23{letter-spacing:0.1em;}.cls-25{letter-spacing:0em;}.cls-26{letter-spacing:-0.01em;}.cls-27{letter-spacing:-0.01em;}.cls-28{letter-spacing:-0.03em;}.cls-29{letter-spacing:-0.08em;}.cls-30{letter-spacing:-0.01em;}.cls-31{letter-spacing:-0.04em;}.cls-32{letter-spacing:-0.17em;}.cls-33{letter-spacing:-0.03em;}.cls-34{letter-spacing:-0.04em;}.cls-35{letter-spacing:-0.01em;}.cls-36{letter-spacing:-0.02em;}.cls-37{letter-spacing:-0.02em;}.cls-38{letter-spacing:-0.01em;}.cls-39{letter-spacing:-0.03em;}.cls-40{letter-spacing:-0.05em;}.cls-41{letter-spacing:0.09em;}.cls-42{letter-spacing:0.06em;}</style><linearGradient id="Unbenannter_Verlauf_40" x1="754.39" y1="897.55" x2="615.12" y2="758.28" gradientUnits="userSpaceOnUse"><stop offset="0" stop-color="#7c95a4"/><stop offset="1" stop-color="#fdb566"/></linearGradient><linearGradient id="Neues_Verlaufsfeld_2" x1="780.73" y1="1962.98" x2="1229.27" y2="1186.1" xlink:href="#Unbenannter_Verlauf_40"/><linearGradient id="Neues_Verlaufsfeld_2-2" x1="1714.13" y1="1551.19" x2="1157.48" y2="994.55" xlink:href="#Unbenannter_Verlauf_40"/><linearGradient id="Neues_Verlaufsfeld_2-3" x1="1812.72" y1="582.28" x2="1219.33" y2="924.87" xlink:href="#Unbenannter_Verlauf_40"/><linearGradient id="Neues_Verlaufsfeld_2-4" x1="1042.4" y1="41" x2="1042.4" y2="724.89" xlink:href="#Unbenannter_Verlauf_40"/><linearGradient id="Unbenannter_Verlauf_27" x1="201.26" y1="408.23" x2="757.9" y2="964.87" gradientUnits="userSpaceOnUse"><stop offset="0" stop-color="#314755"/><stop offset="0.99" stop-color="#26a0da"/></linearGradient><linearGradient id="Neues_Verlaufsfeld_2-5" x1="201.18" y1="407.91" x2="757.83" y2="964.55" xlink:href="#Unbenannter_Verlauf_40"/><linearGradient id="Neues_Verlaufsfeld_2-6" x1="17.44" y1="1319.5" x2="917.41" y2="1319.5" xlink:href="#Unbenannter_Verlauf_40"/></defs><title>Zeichenfläche 1</title><g class="cls-1"><g id="Ebene_1" data-name="Ebene 1"><path class="cls-2" d="M609.73,769.31c35.29-20.26,70.47-40.69,105-62.23,3.93-2.16,7.9-4.22,11.77-6.48q43.08-25.15,86.14-50.39c1.86,17.21.86,34.44.37,51.66q-49.51,29.31-99,58.65c-26.08,15.52-52.08,31.19-78.11,46.8-2.1,1.87-1.58,4.41-1.56,6.72.41,41.94,1,83.88,1.29,125.81.15,25.47,1.25,50.93.08,76.4l-.58.15a11.57,11.57,0,0,0-1.5.52c-2.86,1.89-5.8,3.67-8.57,5.69-10,7.3-21.92,11.52-31.44,19.59l-.08-.08c-2.91-2-1.37-4.86-1.42-7.32q-.87-50.46-1.58-100.92-.72-65.58-1.43-131.18c-3-15.67,3.14-26.13,18-31.65A13.25,13.25,0,0,0,609.73,769.31Z"/><path class="cls-3" d="M609.73,769.31c35.29-20.26,70.47-40.69,105-62.23,3.93-2.16,7.9-4.22,11.77-6.48q43.08-25.15,86.14-50.39c1.86,17.21.86,34.44.37,51.66q-49.51,29.31-99,58.65c-26.08,15.52-52.08,31.19-78.11,46.8-2.1,1.87-1.58,4.41-1.56,6.72.41,41.94,1,83.88,1.29,125.81.15,25.47,1.25,50.93.08,76.4l-.58.15a11.57,11.57,0,0,0-1.5.52c-2.86,1.89-5.8,3.67-8.57,5.69-10,7.3-21.92,11.52-31.44,19.59l-.08-.08c-2.91-2-1.37-4.86-1.42-7.32q-.87-50.46-1.58-100.92-.72-65.58-1.43-131.18c-3-15.67,3.14-26.13,18-31.65A13.25,13.25,0,0,0,609.73,769.31Z"/></g><g id="Ebene_23" data-name="Ebene 23"><path class="cls-4" d="M1182.07,1111.66c-2.78,3.06-2.34,6.76-2.3,10.49q.7,69.43,1.25,138.87c0,3.1.81,6.29-.55,9.33-15.38-8.38-30.25-17.72-46.43-24.57q-.29-33.93-.57-67.86c-.35-37.78-.83-75.56-1-113.34-.33-56.67-.43-113.34-.81-170,0-4.65,1.66-9.61-1.32-14L1010.63,813c-15.32-8.64-15.46-8.87-.44-17.82C1020.63,789,1030,780.9,1041.82,777l78.26,44.12,50.13,28.27c5.13,2.38,6.68,6.11,6.69,12q.13,57.72,1.22,115.43c.19,10.77-1,21.64,1.31,32.33-.52,17.37-.43,34.72,1.52,52-2.82,12.79.13,25.63-.19,38.45C1180.66,1103.55,1178.83,1108,1182.07,1111.66Z"/></g><g id="Ebene_20" data-name="Ebene 20"><path class="cls-4" d="M1312.53,860.28c.19,31.83.33,63.66.59,95.49.07,8.72.48,17.43.73,26.14q0,24.06,0,48.11c0,1.72,1,3.8-1.42,4.86L1269,1009.65q-1.17-100.5-2.31-201c0-2.39.14-4.83-1.84-6.69-1.56-3.52-5.14-4.46-8.07-6.11q-86.11-48.45-172.31-96.77c-.27-17.06-1.48-34.14.83-51.16,2.59,1.34,5.23,2.61,7.77,4q103.83,58.49,207.66,117c3,1.69,6.11,3.2,9.17,4.79,2.94,8.69.91,17.67,1.35,26.5,1,18.74.85,37.53,1.17,56.3l-.12,1.61Z"/></g><g id="Ebene_21" data-name="Ebene 21"><path class="cls-5" d="M1134,1245.78c16.19,6.85,31.06,16.19,46.44,24.57q-28.28,16.94-56.54,33.88c-2.49,1.5-4.83,3.22-7.24,4.84-27.11,15.83-54.28,31.55-81.32,47.51-19.72,11.63-39.25,23.56-58.87,35.36a6.63,6.63,0,0,0-2.2.83c-12,11.06-23.34,8.54-35.94,0s-26.29-15-39.52-22.3l-64.08-36.12-54.3-30.63-51.09-29.27.71-1c2.69-.09,5.4-.5,7.47-2.22,10.86-9,24.55-13.13,36.07-21,2.58,1.38,5.18,2.72,7.74,4.14,56.09,31.12,111.62,63.25,168.36,93.19,2.65,1.41,5.35,5.32,9,1.49,1.67-.8,3.42-1.47,5-2.41Q1048.92,1296.23,1134,1245.78Z"/></g><g id="Ebene_22" data-name="Ebene 22"><path class="cls-5" d="M1269,1009.65l43.41,25.23c-22.53,13.56-45,27.18-67.61,40.67-18.25,10.9-36.59,21.66-54.92,32.45-2.48,1.46-4.7,3.55-7.83,3.66-3.24-3.7-1.41-8.11-1.31-12.08.32-12.82-2.63-25.66.19-38.45,6.14-3.72,12.2-7.57,18.43-11.13C1222.66,1036.66,1245.17,1022,1269,1009.65Z"/></g><g id="Ebene_12" data-name="Ebene 12"><path class="cls-3" d="M1086.11,906.92c11.66-8.3,24.67-14.31,36.85-21.71,2.47-1.51,4.89-3.12,7.33-4.68,3,4.43,1.29,9.39,1.32,14,.38,56.67.48,113.34.81,170,.22,37.78.7,75.56,1,113.34q.3,33.93.57,67.86-85.14,50.43-170.28,100.85c-1.58.94-3.33,1.61-5,2.41a340,340,0,0,1-.51-51.36c2.42-1.6,4.78-3.3,7.27-4.79q58.93-35,117.9-69.94c3.41-2,6.7-3.56,6.5-8.83-.6-15.12-.55-30.25-.75-45.38,1-17.26-.19-34.48-.26-52.65-12,5.31-22,12.42-32.43,18.52-29.2,17.06-58.16,34.53-87.38,51.57-4.23,2.46-7,7.72-12.85,7.22-1.89-12.28-.54-24.64-1-37-.19-4.71.33-9.47-1.3-14,.94-.49,1.91-.94,2.82-1.48,42.51-25.31,85-50.71,127.57-75.85,4.24-2.49,4-5.76,3.9-9.43Q1087.19,981.29,1086.11,906.92Z"/></g><g id="Ebene_13" data-name="Ebene 13"><path class="cls-5" d="M816.89,909.44l-45.62-26c7.45-6.09,16.12-10.24,24.34-15.08q108.2-63.72,216.5-127.26c24.06-14.12,48.25-28,72.38-42q86.16,48.36,172.31,96.77c2.93,1.65,6.51,2.59,8.07,6.11-8,5-16.15,9.82-24.07,15-6.6,4.28-14.31,6.88-19.73,13l-5.43-5.84q-62.64-35.35-125.26-70.75c-3.41-1.93-6.41-2-9.71,0q-19.39,11.9-38.85,23.68c-11.78,3.91-21.19,12-31.63,18.2-15,8.95-14.88,9.18.44,17.82l119.66,67.52c-2.44,1.56-4.86,3.17-7.33,4.68-12.18,7.4-25.19,13.41-36.85,21.71a8,8,0,0,0-1.27-.35l-58.49-32.83-57.09-32.31c-4.82-2.83-9.68-5.59-14.44-8.5-3.35-2-6.31-1.73-9.67.27Q881.07,871.41,816.89,909.44Z"/></g><g id="Ebene_14" data-name="Ebene 14"><path class="cls-4" d="M635.11,1016.4l-1.5.52A11.57,11.57,0,0,1,635.11,1016.4Z"/></g><g id="Ebene_15" data-name="Ebene 15"><path class="cls-4" d="M903.53,752.88l-90.54-51c.5-17.22,1.5-34.45-.36-51.66,4.27-.77,6.87,3,10.56,3.85l50.21,28.22,72.45,40.81,4.32,2.46c-10.56,8.87-22.8,15.13-34.65,22C911.76,749.66,908.58,753.48,903.53,752.88Z"/></g><g id="Ebene_16" data-name="Ebene 16"><path class="cls-5" d="M680.22,832.64l-44.34-25.32c26-15.61,52-31.28,78.11-46.8q49.44-29.41,99-58.65l90.53,51c-14,9.89-29,18.23-43.93,26.58-13.15-7.48-26.37-14.85-39.42-22.51-4.17-2.45-7.59-2.31-11.8.06-6.26,3.52-11.83,8-17.92,11.69-12,7.25-24.23,14.07-36.36,21.07-4.38,2.42-8.82,4.75-13.14,7.27Q710.56,814.79,680.22,832.64Z"/></g><g id="Ebene_17" data-name="Ebene 17"><path class="cls-4" d="M956.25,1193.4c-4.18,3.56-7-.56-9.82-2.16q-102-57.15-203.76-114.57-53.52-30.15-107-60.42c1.17-25.47.07-50.93-.08-76.4-.26-41.93-.88-83.87-1.29-125.81,0-2.31-.54-4.85,1.56-6.72l44.34,25.32q.75,44.4,1.48,88.8c0,11.63,0,23.26,0,34.89.06,10.82-3.46,23.85,1.35,31.83,5,8.35,18,12.1,27.77,17.36,5.44,2.93,10.12,7.75,16.92,7.82,12.25,6.92,24.56,13.75,36.75,20.78,5,2.88,7.32,2,7.23-4-.49-34.75-.66-69.51-1.54-104.25-.36-14.19-1.11-28.32,1.07-42.42l45.62,26c0,6.38-.1,12.76,0,19.13q.71,64.51,1.53,129c.05,4.08-.34,8,4.61,10.8,36.77,20.48,73.34,41.31,110,62l18.17,10.23,2.79,1.74c1.62,4.57,1.1,9.33,1.29,14C955.71,1168.76,954.36,1181.12,956.25,1193.4Z"/></g><g id="Ebene_18" data-name="Ebene 18"><path class="cls-3" d="M729.35,1119.35l43.74,24.73q.27,53.07.53,106.14c-11.52,7.86-25.21,12-36.07,21-2.07,1.72-4.78,2.13-7.47,2.22l-1.44-112.77c-.12-11.49-.08-23-.46-34.48A17.82,17.82,0,0,1,729.35,1119.35Z"/></g><g id="Ebene_19" data-name="Ebene 19"><path class="cls-5" d="M593.6,1042.2c9.52-8.07,21.44-12.29,31.44-19.59,2.77-2,5.71-3.8,8.57-5.69l1.5-.52.58-.15q53.49,30.21,107,60.42Q844.5,1134,946.43,1191.24c2.85,1.6,5.64,5.72,9.82,2.16,5.89.5,8.62-4.76,12.85-7.22,29.22-17,58.18-34.51,87.38-51.57,10.46-6.1,20.39-13.21,32.43-18.52.07,18.17,1.29,35.39.26,52.65-6.91,1.63-12.3,6.19-18.19,9.68q-56.58,33.52-113,67.32l-2.22.71L820.05,1170c-15.77-8.41-30.71-18.34-47-25.88l-43.74-24.73q-40.85-23.25-81.69-46.5Q620.65,1057.49,593.6,1042.2Z"/></g><g id="Ebene_8" data-name="Ebene 8"><path class="cls-3" d="M1221.07,829.87c5.42-6.07,13.13-8.67,19.73-13,7.92-5.14,16-10,24.07-15,2,1.86,1.81,4.3,1.84,6.69q1.14,100.5,2.31,201c-23.85,12.35-46.36,27-69.64,40.35-6.23,3.56-12.29,7.41-18.43,11.13-2-17.3-2-34.65-1.52-52,13.12-7.48,26.27-14.91,39.33-22.5,2.49-1.45,4.28-3.48,4.21-7q-1-48.52-1.69-97C1221,865,1221.13,847.45,1221.07,829.87Z"/></g><g id="Ebene_9" data-name="Ebene 9"><path class="cls-6" d="M1312.53,860.28l-.21-2.15Z"/></g><g id="Ebene_10" data-name="Ebene 10"><path class="cls-3" d="M1084.49,699.08c-24.13,14-48.32,27.89-72.38,42Q903.8,804.63,795.61,868.35c-8.22,4.84-16.89,9-24.34,15.08-2.18,14.1-1.43,28.23-1.07,42.42.88,34.74,1,69.5,1.54,104.25.09,6-2.24,6.9-7.23,4-12.19-7-24.5-13.86-36.75-20.78-.72-49.31-1.34-98.63-2.29-148-.11-5.94,3-8.45,7.29-11q63.45-37.42,126.83-75c14.95-8.35,29.91-16.69,43.93-26.58,5.06.61,8.24-3.21,12-5.37,11.85-6.82,24.09-13.08,34.65-22q45.33-26.74,90.64-53.49c13.17-7.78,26.3-15.63,39.49-23.4,1.5-.88,3.08-2.35,5-.74C1083,664.94,1084.22,682,1084.49,699.08Z"/></g><g id="Ebene_11" data-name="Ebene 11"><path class="cls-4" d="M958.25,1297.68a340,340,0,0,0,.51,51.36c-3.69,3.83-6.39-.08-9-1.49-56.74-29.94-112.27-62.07-168.36-93.19-2.56-1.42-5.16-2.76-7.74-4.14q-.27-53.07-.53-106.14c16.25,7.54,31.19,17.47,47,25.88-1.47,16.14.21,32.28-.14,48.43-.06,2.8,1.74,4.19,3.94,5.41q26.48,14.65,52.9,29.38,30.15,18.16,61.31,34.51C944.64,1291.32,950.34,1296.74,958.25,1297.68Z"/></g><g id="Ebene_2" data-name="Ebene 2"><path class="cls-7" d="M1317.21,1848.32C1058.62,1955.3,755,1946,493,1796.83q-32.91-18.74-63.67-39.7l886.92-520.82Z"/></g><g id="Ebene_3" data-name="Ebene 3"><path class="cls-8" d="M1774.11,1443.54C1675,1617.66,1528.5,1748.1,1360,1827.66l-1.66-1033.95L1890,1096.43A936.27,936.27,0,0,1,1774.11,1443.54Z"/></g><g id="Ebene_7" data-name="Ebene 7"><path class="cls-9" d="M1894.65,1051.61l-897-510.75,527.45-309.15C1784.27,427.44,1918.09,739.73,1894.65,1051.61Z"/></g><g id="Ebene_6" data-name="Ebene 6"><path class="cls-10" d="M1487,204.38,599.14,724.89l-1.3-612c258.72-107.2,562.48-98,824.74,51.29Q1455.84,183.11,1487,204.38Z"/></g><g id="Ebene_4" data-name="Ebene 4"><path class="cls-11" d="M557.25,1165.53,25.57,862.81a936.36,936.36,0,0,1,115.89-347.1c99.06-174,245.36-304.31,413.62-383.93Z"/><path class="cls-12" d="M557.17,1165.21,25.5,862.48a936.28,936.28,0,0,1,115.88-347.1c99.06-174,245.37-304.3,413.62-383.92Z"/></g><g id="Ebene_5" data-name="Ebene 5"><path class="cls-13" d="M917.41,1420.18l-527.1,309.56C130.75,1534-3.41,1221.41,20.08,909.26Z"/></g><g id="Ebene_24" data-name="Ebene 24" class="cls-14"><text class="cls-15" transform="translate(787.39 253.98)">F<tspan class="cls-16" x="71.38" y="0">I</tspan><tspan class="cls-17" x="105.68" y="0">L</tspan><tspan class="cls-18" x="163.52" y="0">M</tspan><tspan class="cls-19" x="286.82" y="0">E</tspan></text><text class="cls-20" transform="translate(1140.83 579.8)">3<tspan class="cls-19" x="73.35" y="0">D &amp; </tspan><tspan class="cls-21" x="355.11" y="0">V</tspan><tspan class="cls-22" x="447.45" y="0">F</tspan><tspan class="cls-23" x="518.91" y="0">X</tspan></text><text class="cls-24" transform="translate(217.69 1450.29)"><tspan class="cls-25">3</tspan><tspan x="61.35" y="0">D </tspan><tspan class="cls-26" x="172.71" y="0">D</tspan><tspan class="cls-27" x="248.73" y="0">RU</tspan><tspan class="cls-28" x="383.87" y="0">C</tspan><tspan x="459.46" y="0">K</tspan></text><text class="cls-29" transform="translate(1378 1214.31)">K<tspan class="cls-30" x="58.13" y="0">O</tspan><tspan class="cls-31" x="149.74" y="0">N</tspan><tspan class="cls-32" x="217.8" y="0">T</tspan><tspan class="cls-33" x="277.14" y="0">A</tspan><tspan class="cls-34" x="356.98" y="0">K</tspan><tspan class="cls-35" x="420.56" y="0">T</tspan></text><text class="cls-24" transform="translate(664.71 1759.67)"><tspan class="cls-36">A</tspan><tspan class="cls-37" x="80.92" y="0">B</tspan><tspan class="cls-38" x="145.47" y="0">O</tspan><tspan class="cls-39" x="238.19" y="0">U</tspan><tspan x="307.96" y="0">T </tspan><tspan class="cls-40" x="421.24" y="0">M</tspan><tspan x="532.54" y="0">E</tspan></text><text class="cls-41" transform="translate(230.52 702.08)">D<tspan class="cls-42" x="88.69" y="0">I</tspan><tspan class="cls-19" x="116.64" y="0">Y</tspan></text></g></g></svg>